<?xml version="1.0" encoding="UTF-8" standalone="no"?>
<!DOCTYPE svg PUBLIC "-//W3C//DTD SVG 1.1//EN" "http://www.w3.org/Graphics/SVG/1.1/DTD/svg11.dtd">
<svg version="1.1" xmlns="http://www.w3.org/2000/svg" xmlns:xlink="http://www.w3.org/1999/xlink" preserveAspectRatio="xMidYMid meet" viewBox="0 0 640 640" width="640" height="640"><defs><path d="M56.33 69.67C56.33 102.6 56.33 366.07 56.33 399C56.33 409.96 65.04 418.67 76 418.67C90.8 418.67 209.2 418.67 224 418.67C122.14 448.83 61.4 556.61 53.99 590C107.2 590 532.8 590 586.01 590C586.01 590 536.29 453.34 421 418.67C435.3 418.67 549.7 418.67 564 418.67C574.97 418.67 583.67 409.96 583.67 399C583.67 366.07 583.67 102.6 583.67 69.67C583.67 58.71 574.97 50 564 50C531.47 50 368.8 50 76 50C62.89 55.8 56.33 62.36 56.33 69.67Z" id="f8Q0Wzj7r"></path><path d="M53.95 590C373.21 590 550.58 590 586.05 590C586.05 590 518.74 402.13 357.46 410.15C337.14 410.15 318.09 408.55 290.15 410.15C147.92 400.52 62.86 549.86 53.97 590" id="c4YFTNPW1"></path><path d="M56.29 69.78C56.29 102.71 56.29 366.1 56.29 399.02C56.29 409.98 65.12 418.81 76.08 418.81C124.86 418.81 515.14 418.81 563.92 418.81C574.88 418.81 583.71 409.98 583.71 399.02C583.71 366.1 583.71 102.71 583.71 69.78C583.71 58.82 574.88 49.99 563.92 49.99C531.4 49.99 368.78 49.99 76.08 49.99C62.89 55.88 56.29 62.47 56.29 69.78Z" id="aiH84dP7I"></path><path d="M106.77 374.4L533.23 374.4L533.23 94.4L106.77 94.4L106.77 374.4Z" id="a2gmczE6rH"></path></defs><g><g><g><use xlink:href="#f8Q0Wzj7r" opacity="1" fill="#000000" fill-opacity="0"></use><g><use xlink:href="#f8Q0Wzj7r" opacity="1" fill-opacity="0" stroke="#ffffff" stroke-width="8.13" stroke-opacity="1"></use></g></g><g><use xlink:href="#c4YFTNPW1" opacity="1" fill="#d9dddf" fill-opacity="1"></use><g><use xlink:href="#c4YFTNPW1" opacity="1" fill-opacity="0" stroke="#000000" stroke-width="3.37" stroke-opacity="1"></use></g></g><g><use xlink:href="#aiH84dP7I" opacity="1" fill="#d9dddf" fill-opacity="1"></use><g><use xlink:href="#aiH84dP7I" opacity="1" fill-opacity="0" stroke="#000000" stroke-width="3.37" stroke-opacity="1"></use></g></g><g><use xlink:href="#a2gmczE6rH" opacity="1" fill="#000000" fill-opacity="1"></use><g><use xlink:href="#a2gmczE6rH" opacity="1" fill-opacity="0" stroke="#000000" stroke-width="1.88" stroke-opacity="1"></use></g></g></g></g></svg>